fd_2_states
version=1
nRows=38
nColumns=17
inDegrees=yes

# SIMM Motion File Header:
name fd_2_states
datacolumns 17
datarows 38
otherdata 1
range 0.15776800 0.21907559
endheader
time	/jointset/r_shoulder/r_shoulder_elev/value	/jointset/r_shoulder/r_shoulder_elev/speed	/jointset/r_elbow/r_elbow_flex/value	/jointset/r_elbow/r_elbow_flex/speed	/forceset/TRIlong/activation	/forceset/TRIlong/fiber_length	/forceset/TRIlat/activation	/forceset/TRIlat/fiber_length	/forceset/TRImed/activation	/forceset/TRImed/fiber_length	/forceset/BIClong/activation	/forceset/BIClong/fiber_length	/forceset/BICshort/activation	/forceset/BICshort/fiber_length	/forceset/BRA/activation	/forceset/BRA/fiber_length
      0.15776800	     -0.69155941	    -20.27844619	     39.96772390	     72.77852041	      0.02001107	      0.15176341	      0.02904787	      0.08606989	      0.02838747	      0.08109720	      0.16595597	      0.13393057	      0.06425440	      0.13330085	      0.03138781	      0.08397316
      0.15967615	     -0.73109936	    -21.16664360	     40.10834055	     74.61484554	      0.02001079	      0.15179335	      0.02907223	      0.08612393	      0.02841605	      0.08115118	      0.16746456	      0.13385439	      0.06458579	      0.13322814	      0.03130055	      0.08394434
      0.16019860	     -0.74222183	    -21.41149455	     40.14745631	     75.12503483	      0.02001072	      0.15180160	      0.02909566	      0.08613899	      0.02844465	      0.08116623	      0.16792991	      0.13383363	      0.06468071	      0.13320812	      0.03127165	      0.08393631
      0.16072105	     -0.75347237	    -21.65684255	     40.18683930	     75.63769524	      0.02001065	      0.15180986	      0.02923034	      0.08615390	      0.02861059	      0.08118107	      0.16909644	      0.13381272	      0.06490121	      0.13318797	      0.03120738	      0.08392824
      0.16124350	     -0.76485115	    -21.90239335	     40.22649059	     76.15197988	      0.02001057	      0.15181815	      0.02935790	      0.08616858	      0.02876772	      0.08119560	      0.17021671	      0.13379152	      0.06510935	      0.13316765	      0.03114186	      0.08392015
      0.16385576	     -0.82366755	    -23.12751751	     40.42878740	     78.73185774	      0.02001021	      0.15185990	      0.02984009	      0.08624154	      0.02936133	      0.08126753	      0.17476672	      0.13368266	      0.06591514	      0.13306394	      0.03082136	      0.08387921
      0.16646801	     -0.88567410	    -24.34468852	     40.63782948	     81.31581827	      0.02000986	      0.15190222	      0.03013827	      0.08631734	      0.02972810	      0.08134252	      0.17797137	      0.13357141	      0.06643520	      0.13295773	      0.03051235	      0.08383715
      0.16880276	     -0.94377642	    -25.42632371	     40.83038045	     83.62877190	      0.02000956	      0.15194054	      0.03030715	      0.08638864	      0.02993568	      0.08141338	      0.18003305	      0.13347156	      0.06674210	      0.13286120	      0.03024556	      0.08379842
      0.16992681	     -0.97264869	    -25.94502570	     40.92501002	     84.74283982	      0.02000942	      0.15195916	      0.03036600	      0.08642416	      0.03000799	      0.08144875	      0.18082134	      0.13342356	      0.06685227	      0.13281422	      0.03012017	      0.08377937
      0.17031836	     -0.98284274	    -26.12535446	     40.95826689	     85.13076840	      0.02000937	      0.15196568	      0.03046252	      0.08643663	      0.03009902	      0.08146119	      0.18150451	      0.13340681	      0.06690460	      0.13279778	      0.03007696	      0.08377267
      0.17070991	     -0.99310733	    -26.30538508	     40.99167560	     85.51828089	      0.02000933	      0.15197220	      0.03062082	      0.08644889	      0.03024388	      0.08147344	      0.18253335	      0.13338988	      0.06696980	      0.13278127	      0.03003398	      0.08376593
      0.17266765	     -1.04548227	    -27.19756251	     41.16098446	     87.43993571	      0.02000909	      0.15200504	      0.03126169	      0.08650849	      0.03083031	      0.08153354	      0.18694255	      0.13330258	      0.06723891	      0.13269786	      0.02982255	      0.08373175
      0.17560075	     -1.12718221	    -28.50599717	     41.42160888	     90.26233344	      0.02000874	      0.15205489	      0.03187868	      0.08659992	      0.03139467	      0.08162630	      0.19174545	      0.13316675	      0.06750858	      0.13257032	      0.02951637	      0.08367898
      0.17853385	     -1.21268010	    -29.78929895	     41.69044320	     93.04387831	      0.02000841	      0.15210549	      0.03223940	      0.08669757	      0.03172442	      0.08172508	      0.19502908	      0.13302856	      0.06767405	      0.13243980	      0.02922242	      0.08362432
      0.17989841	     -1.25373293	    -30.38039575	     41.81828537	     94.33106209	      0.02000826	      0.15212928	      0.03235169	      0.08674511	      0.03182702	      0.08177300	      0.19618354	      0.13296410	      0.06772749	      0.13237804	      0.02908968	      0.08359826
      0.18037124	     -1.26814604	    -30.58445745	     41.86299350	     94.77627883	      0.02000820	      0.15213756	      0.03244437	      0.08676180	      0.03194721	      0.08178976	      0.19689857	      0.13294172	      0.06776646	      0.13235647	      0.02905048	      0.08358914
      0.18084408	     -1.28265553	    -30.78796985	     41.90791196	     95.22058707	      0.02000815	      0.15214587	      0.03259144	      0.08677832	      0.03215093	      0.08180619	      0.19794701	      0.13291916	      0.06782650	      0.13233480	      0.02901813	      0.08357995
      0.18320824	     -1.35663510	    -31.79190817	     42.13563192	     97.41316479	      0.02000790	      0.15218766	      0.03316303	      0.08686034	      0.03294217	      0.08188659	      0.20232912	      0.13280360	      0.06806507	      0.13222470	      0.02885952	      0.08353319
      0.18557241	     -1.43295964	    -32.77241642	     42.36847462	     99.55644272	      0.02000766	      0.15222994	      0.03353435	      0.08694492	      0.03345580	      0.08196948	      0.20557075	      0.13268531	      0.06822608	      0.13211199	      0.02870599	      0.08348513
      0.18965475	     -1.57014020	    -34.42789462	     42.78233968	    103.19226685	      0.02000726	      0.15230402	      0.03389634	      0.08709964	      0.03395628	      0.08212234	      0.20933053	      0.13247886	      0.06839088	      0.13191086	      0.02845235	      0.08339935
      0.19018848	     -1.58857238	    -34.64192580	     42.83754203	    103.66443022	      0.02000720	      0.15231380	      0.03396125	      0.08712059	      0.03401722	      0.08214311	      0.20981891	      0.13245182	      0.06843696	      0.13188393	      0.02841839	      0.08338789
      0.19072221	     -1.60711863	    -34.85529816	     42.89299614	    104.13546667	      0.02000715	      0.15232361	      0.03423496	      0.08714109	      0.03419019	      0.08216373	      0.21105796	      0.13242458	      0.06867731	      0.13185671	      0.02837266	      0.08337638
      0.19125593	     -1.62577849	    -35.06759409	     42.94870108	    104.60416997	      0.02000710	      0.15233343	      0.03449306	      0.08716099	      0.03435250	      0.08218410	      0.21225230	      0.13239701	      0.06890626	      0.13182916	      0.02832670	      0.08336482
      0.19392456	     -1.72075705	    -36.10784726	     43.23093157	    106.89914310	      0.02000686	      0.15238292	      0.03546606	      0.08725916	      0.03496467	      0.08228652	      0.21715846	      0.13225563	      0.06978998	      0.13168718	      0.02810188	      0.08330637
      0.19659318	     -1.81846957	    -37.11889332	     43.51919670	    109.13412687	      0.02000662	      0.15243294	      0.03606539	      0.08736159	      0.03534180	      0.08239293	      0.22068219	      0.13211078	      0.07035733	      0.13154003	      0.02788519	      0.08324667
      0.19896446	     -1.90753888	    -38.00311776	     43.78031687	    111.10083742	      0.02000641	      0.15247783	      0.03640222	      0.08745742	      0.03555366	      0.08249116	      0.22297978	      0.13198086	      0.07068891	      0.13140614	      0.02769920	      0.08319256
      0.20010357	     -1.95106919	    -38.42499545	     43.90741069	    112.04419441	      0.02000632	      0.15249954	      0.03656124	      0.08750486	      0.03568471	      0.08253942	      0.22400415	      0.13191829	      0.07078297	      0.13134095	      0.02761199	      0.08316620
      0.20054210	     -1.96795518	    -38.58684054	     43.95662490	    112.40683577	      0.02000628	      0.15250792	      0.03680213	      0.08752291	      0.03598587	      0.08255755	      0.22497651	      0.13189406	      0.07074537	      0.13131576	      0.02757878	      0.08315599
      0.20098063	     -1.98491198	    -38.74782066	     44.00599777	    112.76753448	      0.02000624	      0.15251632	      0.03704591	      0.08754049	      0.03629309	      0.08257499	      0.22596819	      0.13186961	      0.07070351	      0.13129055	      0.02754577	      0.08314574
      0.20317328	     -2.07073777	    -39.53051112	     44.25519164	    114.51462566	      0.02000607	      0.15255851	      0.03801234	      0.08762673	      0.03751004	      0.08265953	      0.23020006	      0.13174484	      0.07049840	      0.13116410	      0.02738366	      0.08309400
      0.20536592	     -2.15823652	    -40.27478646	     44.50810624	    116.16454864	      0.02000589	      0.15260103	      0.03866284	      0.08771539	      0.03832825	      0.08274652	      0.23344319	      0.13161732	      0.07030010	      0.13103665	      0.02722636	      0.08304142
      0.20898586	     -2.30616492	    -41.44597150	     44.93333947	    118.75613467	      0.02000562	      0.15267187	      0.03930673	      0.08787038	      0.03913744	      0.08289975	      0.23724242	      0.13140414	      0.06998697	      0.13082316	      0.02697680	      0.08295282
      0.21003503	     -2.34982282	    -41.77771897	     45.05832121	    119.49319858	      0.02000554	      0.15269255	      0.03943437	      0.08791699	      0.03929265	      0.08294601	      0.23810855	      0.13134213	      0.06990208	      0.13076046	      0.02690676	      0.08292672
      0.21063114	     -2.37478293	    -41.96506184	     45.12967699	    119.91018167	      0.02000549	      0.15270432	      0.03964231	      0.08794346	      0.03944200	      0.08297245	      0.23936482	      0.13130672	      0.07009124	      0.13072454	      0.02686740	      0.08291180
      0.21122725	     -2.39985443	    -42.15138157	     45.20128082	    120.32533503	      0.02000545	      0.15271611	      0.03985298	      0.08796953	      0.03958822	      0.08299881	      0.24066990	      0.13127094	      0.07030547	      0.13068821	      0.02682837	      0.08289680
      0.21420782	     -2.52686096	    -43.06760540	     45.56298402	    122.37620144	      0.02000524	      0.15277536	      0.04062604	      0.08810049	      0.04012486	      0.08313246	      0.24596894	      0.13108801	      0.07110950	      0.13050162	      0.02663791	      0.08282062
      0.21718838	     -2.65657619	    -43.97247583	     45.93079079	    124.43191553	      0.02000504	      0.15283506	      0.04107970	      0.08823626	      0.04043972	      0.08327042	      0.24969957	      0.13090135	      0.07160062	      0.13030904	      0.02645506	      0.08274241
      0.21907559	     -2.74010217	    -44.54578814	     46.16686492	    125.75470854	      0.02000491	      0.15287311	      0.04126448	      0.08832489	      0.04056790	      0.08335991	      0.25147387	      0.13078236	      0.07180750	      0.13018483	      0.02634307	      0.08269181
